<svg width="101" height="101" viewBox="0 0 101 101" fill="none" xmlns="http://www.w3.org/2000/svg">
<g clip-path="url(#clip0_219_374)">
<path d="M74.9307 2.74927C55.653 -1.85584 38.1511 0.103785 25.9831 2.95136C20.3495 4.27312 15.194 7.134 11.0915 11.2149C6.98897 15.2957 4.10088 20.4361 2.74936 26.0626C-1.85575 45.3465 0.103882 62.8483 2.95145 75.0164C4.27322 80.6499 7.13409 85.8055 11.215 89.908C15.2958 94.0105 20.4362 96.8986 26.0627 98.2501C45.3466 102.855 62.8484 100.896 75.0164 98.048C80.65 96.7262 85.8056 93.8654 89.9081 89.7845C94.0106 85.7036 96.8987 80.5632 98.2502 74.9367C102.849 55.6529 100.896 38.151 98.042 25.983C96.7202 20.3495 93.8593 15.1939 89.7785 11.0914C85.6976 6.98888 80.5572 4.10079 74.9307 2.74927Z" fill="white"/>
<path d="M49.7253 100.192C41.8217 100.201 33.944 99.2868 26.2528 97.4664C20.7577 96.1701 15.7356 93.3603 11.7558 89.3556C7.776 85.3509 4.99761 80.3114 3.73554 74.8083C1.07168 63.418 -1.12678 45.7447 3.53344 26.2281C4.8298 20.7331 7.63958 15.711 11.6443 11.7312C15.649 7.75136 20.6885 4.97296 26.1915 3.71089C34.4211 1.77631 42.8453 0.792114 51.2992 0.777588C59.1963 0.778735 67.066 1.70567 74.7472 3.53943C80.2423 4.83579 85.2644 7.64556 89.2442 11.6503C93.224 15.655 96.0024 20.6945 97.2645 26.1975C99.9283 37.5878 102.127 55.2611 97.4666 74.7777C96.1702 80.2728 93.3605 85.2949 89.3557 89.2747C85.351 93.2545 80.3115 96.0329 74.8085 97.295C66.5855 99.215 58.1696 100.187 49.7253 100.192Z" fill="#FFF9DC"/>
<path d="M49.7253 88.9298C42.5776 88.9412 35.4541 88.0983 28.5063 86.419C25.1504 85.5815 22.092 83.8307 19.6707 81.3606C17.2493 78.8906 15.5596 75.7981 14.789 72.4261C12.2537 61.5992 10.4288 45.7692 14.6053 28.4755C15.4175 25.1509 17.1323 22.1153 19.5604 19.7034C21.9884 17.2915 25.0355 15.5972 28.3655 14.8072C35.8694 13.0068 43.5578 12.0882 51.2747 12.0698C58.4217 12.0524 65.5452 12.8891 72.4937 14.5622C75.8483 15.4005 78.9054 17.1509 81.3265 19.6195C83.7476 22.0882 85.4381 25.1788 86.211 28.549C88.7401 39.382 90.5712 55.2121 86.3886 72.5057C85.5822 75.836 83.8708 78.8785 81.4435 81.2971C79.0163 83.7158 75.9677 85.4163 72.6345 86.2108C65.1305 88.0106 57.4422 88.9293 49.7253 88.9482V88.9298Z" fill="#FFE6C4"/>
<g style="mix-blend-mode:multiply" opacity="0.27">
<path d="M85.4272 28.7513C84.604 25.2085 82.7375 21.9939 80.0688 19.5227C80.7017 20.7982 81.1866 22.1419 81.514 23.5277C83.9146 33.8034 85.8987 49.7131 81.6978 67.1047C80.9323 70.2906 79.2963 73.201 76.9724 75.5109C74.6485 77.8207 71.7282 79.4391 68.5377 80.1852C61.0942 81.9722 53.4672 82.8826 45.8122 82.898C38.7284 82.9057 31.6689 82.069 24.7831 80.4056C21.8832 79.7027 19.2105 78.2715 17.0181 76.2476C18.1598 78.571 19.7973 80.6158 21.815 82.2378C23.8327 83.8598 26.1816 85.0196 28.6962 85.6354C35.5822 87.2967 42.6417 88.1314 49.7253 88.1216C57.3803 88.1062 65.0073 87.1958 72.4508 85.4088C75.6402 84.6625 78.5596 83.0449 80.8834 80.7363C83.2071 78.4277 84.8438 75.5189 85.6109 72.3344C89.8118 54.9367 87.8277 39.0577 85.4272 28.7513Z" fill="#E8C7A0"/>
</g>
<path d="M14.4645 59.009C16.2097 57.5821 18.9471 57.2943 19.9759 55.298C21.3354 52.677 18.647 49.8906 17.5937 47.1349C17.1372 45.9001 17.005 44.5688 17.2098 43.2683C17.4145 41.9678 17.9495 40.7415 18.7634 39.7067C19.6007 38.695 20.6827 37.9142 21.9067 37.4383C23.1307 36.9624 24.456 36.8073 25.7568 36.9878C27.7592 37.294 29.7495 38.4024 31.703 37.8512C33.7606 37.2756 35.2303 34.9485 37.3675 35.0833C39.6517 35.2302 40.6989 38.1023 40.4968 40.3865C40.2947 42.6707 39.4435 45.0222 40.2028 47.1839C40.9622 49.3456 43.2096 50.7112 45.4448 51.3236C47.68 51.936 50.0377 52.0095 52.2729 52.6402C56.0513 53.7058 59.4255 56.5717 60.5461 60.3378C61.6668 64.104 60.1848 68.6479 56.7616 70.5891C53.9937 72.1568 50.4357 71.9486 47.8086 73.7429C45.2917 75.4637 44.1772 78.6419 41.9297 80.6873C38.3167 83.988 31.8561 83.3144 28.9963 79.34C25.5547 74.5573 26.0936 69.9706 19.4615 68.7826C15.2667 68.0232 9.27759 63.2283 14.4645 59.009Z" fill="#C1360C"/>
<path d="M79.3646 52.3707C77.1172 52.5483 74.7044 51.2256 72.7141 52.2788C70.1054 53.6628 70.73 57.478 70.0319 60.35C69.7041 61.6251 69.0545 62.7947 68.1452 63.7468C67.236 64.699 66.0975 65.4018 64.8389 65.788C63.5717 66.146 62.2337 66.1724 60.9534 65.8646C59.673 65.5568 58.4932 64.9253 57.5271 64.0304C56.0513 62.6403 55.0776 60.595 53.1302 59.9397C51.1093 59.2416 48.5741 60.3133 46.8962 58.9905C45.1019 57.5637 45.8735 54.612 47.3371 52.8667C48.8007 51.1214 50.846 49.6579 51.4523 47.4472C52.0585 45.2365 50.9869 42.8298 49.4988 41.0539C48.0107 39.278 46.1123 37.8756 44.6365 36.0875C42.1318 33.0256 40.9622 28.7879 42.1869 25.0646C43.4117 21.3414 47.2146 18.4387 51.1338 18.7939C54.2998 19.0817 57.1107 21.274 60.3195 21.2985C63.3815 21.2985 66.082 19.345 69.1072 18.9347C73.9511 18.2795 78.9053 22.511 78.9727 27.4039C79.0768 33.295 76.021 36.7611 80.8098 41.4887C83.835 44.5016 86.0273 51.8502 79.3646 52.3707Z" fill="#C1360C"/>
<path d="M52.7566 83.6573C46.5644 83.5702 40.4237 82.5164 34.5567 80.5342C31.2804 79.4809 27.055 77.9254 23.4481 75.1942C19.7187 72.365 17.2385 68.654 16.4547 64.747C15.6708 60.84 16.5833 56.835 18.0346 52.8729C18.0346 52.6096 17.9673 52.3463 17.9367 52.0829C17.3916 47.5146 17.0058 40.7723 19.9759 34.973C22.5846 29.878 27.3245 26.3997 31.207 23.895C37.9431 19.5594 43.7853 17.2201 49.5784 16.5465C56.927 15.6769 64 17.857 68.4948 22.3763C70.1485 24.0894 71.5339 26.0424 72.6039 28.1695C73.449 28.7818 74.2635 29.3942 75.0534 30.0066C79.0278 33.1175 82.9715 36.5652 83.7738 41.4336C84.2759 44.4955 83.4124 47.386 82.549 50.1968C81.92 52.0619 81.5091 53.9936 81.3242 55.9532C81.2893 57.495 81.398 59.0367 81.6488 60.5583C81.9244 62.671 82.2122 64.845 81.8141 67.074C81.2017 70.5217 78.8992 73.847 75.1698 76.6823C69.7931 80.7852 62.9222 83.1674 55.298 83.5899C54.4468 83.6389 53.6079 83.6573 52.7566 83.6573ZM78.8869 57.1412C78.0524 60.3438 76.7548 63.4074 75.0351 66.2351C71.7466 71.7465 67.4722 76.076 62.6711 78.6909C60.6626 79.7839 58.5135 80.5958 56.284 81.1037C62.9712 80.5464 68.9725 78.3663 73.694 74.7655C75.9536 73.0447 78.7767 70.24 79.4258 66.6515C79.7565 64.8143 79.5055 62.8915 79.2421 60.8706C79.0581 59.6346 78.9395 58.3897 78.8869 57.1412ZM38.4086 79.1869C40.5339 79.7723 42.6883 80.2465 44.8631 80.6077C43.8764 80.2565 42.9112 79.8475 41.9726 79.3829C40.7808 79.3952 39.5897 79.3215 38.4086 79.1624V79.1869ZM47.4534 78.8379C52.2657 79.8119 57.268 79.0137 61.5382 76.5904C65.9596 74.1838 69.9156 70.1849 72.9836 65.0225C75.6903 60.4664 77.1172 56.0267 77.2213 51.8196C77.2046 48.3864 76.6084 44.9806 75.4576 41.746C76.07 45.4202 75.7209 49.1313 75.4086 52.53C74.98 57.1228 74.4533 62.8364 71.4404 67.3067C67.5701 73.057 60.6625 75.5494 53.7732 77.3927C51.7401 77.9009 49.6396 78.4337 47.4534 78.8134V78.8379ZM27.992 71.1035C28.8641 71.3818 29.7541 71.6007 30.6558 71.7587C31.2682 71.8935 31.9418 72.0282 32.5848 72.2058C35.1481 73.0078 37.6036 74.1204 39.8966 75.5188C40.7846 76.0087 41.6481 76.4863 42.5115 76.9272C46.1125 76.6938 49.6762 76.0591 53.1363 75.035C59.5663 73.3142 65.9963 71.0239 69.4195 65.9289C72.0834 61.9729 72.561 56.8228 72.9836 52.2789C73.3755 47.9922 73.8226 43.1912 72.2304 39.0209C70.8403 35.3466 67.9008 32.3337 65.2615 29.7862C64.1408 28.7022 62.9344 27.5693 61.6301 26.516C61.4218 26.516 61.2136 26.565 61.0177 26.6018C58.8805 26.957 56.976 28.1572 54.9612 29.4248C54.1223 29.9515 53.2588 30.5026 52.3647 30.9864C49.0885 32.7746 45.4693 33.7299 41.9542 34.6607C40.9867 34.9179 40.0191 35.169 39.0638 35.4446C35.3405 36.4978 30.6803 38.1513 27.6796 41.5316C25.1076 44.4343 23.889 49.3885 26.2957 52.6708C26.4816 52.9305 26.5588 53.2525 26.5107 53.5682C26.4627 53.8839 26.2932 54.1684 26.0385 54.361C25.7781 54.5463 25.4556 54.6225 25.1398 54.5733C24.824 54.5241 24.54 54.3534 24.3483 54.0977C23.0971 52.3617 22.473 50.252 22.5785 48.1147C22.2601 48.8557 21.9661 49.6028 21.6354 50.356C21.2435 51.293 20.87 52.2299 20.5148 53.1546C21.0066 57.2025 22.1156 61.1512 23.8033 64.8633C24.0338 64.6836 24.321 64.5922 24.613 64.6056C24.905 64.6191 25.1825 64.7366 25.3955 64.9368C25.6212 65.1604 25.7512 65.4629 25.7581 65.7806C25.7649 66.0982 25.6481 66.4061 25.4322 66.6392C25.2689 66.8109 25.1529 67.0218 25.0954 67.2516C25.9227 68.6264 26.8936 69.9094 27.992 71.079V71.1035ZM18.9777 58.1884C18.5133 60.1983 18.4612 62.2816 18.8246 64.3122C19.486 67.6435 21.6477 70.834 24.9056 73.3081C26.9233 74.7875 29.1262 75.996 31.458 76.9027C29.6761 75.8963 28.047 74.6405 26.6202 73.1733C26.1613 72.983 25.7206 72.7514 25.3036 72.4814C24.5892 72.009 23.9834 71.3901 23.5263 70.6659C23.0691 69.9417 22.7711 69.1285 22.652 68.2804C22.6327 68.1383 22.6224 67.9952 22.6214 67.8518L22.4928 67.619C20.8772 64.6506 19.6936 61.4668 18.9777 58.1639V58.1884ZM32.5664 74.7227C33.5053 75.2562 34.4939 75.6971 35.5181 76.0393L36.1305 76.2291C34.9877 75.6244 33.7953 75.1184 32.5664 74.7165V74.7227ZM74.686 32.8113C74.9983 33.5829 75.2984 34.3423 75.5801 35.0894C77.5213 40.117 79.7259 45.8122 79.6157 51.7155C79.8116 50.9684 80.0321 50.2336 80.2281 49.5109C81.018 46.841 81.7651 44.3241 81.3548 41.8256C80.7792 38.2248 77.9684 35.4629 74.686 32.8113ZM52.7505 18.7633C51.7784 18.763 50.8071 18.8202 49.8417 18.9348C44.4466 19.5471 38.9413 21.7946 32.5113 25.9282C28.9105 28.243 24.4708 31.4886 22.1009 36.0753C20.478 39.2474 19.7861 43.0809 19.9881 47.9494C23.2338 40.2456 26.7243 32.9399 32.4195 27.3795C38.2493 21.6721 48.0536 17.4344 56.8106 20.8331C58.816 21.6435 60.6964 22.7342 62.3955 24.0726C64.3063 24.124 66.1845 24.5789 67.907 25.4076C67.5571 24.9413 67.1831 24.4936 66.7863 24.0665C63.3753 20.6862 58.2803 18.7633 52.7505 18.7633ZM50.1969 22.0273C44.1466 22.0273 38.1269 25.1933 34.1341 29.1003C31.3034 31.9584 28.9042 35.2137 27.0121 38.7637C30.3558 35.7017 34.7894 34.1402 38.3963 33.1114C39.37 32.8358 40.3498 32.5786 41.3296 32.3214C44.6855 31.4335 48.1638 30.4843 51.1889 28.8676C52.0095 28.4144 52.8056 27.9123 53.6385 27.3856C55.291 26.2428 57.0811 25.3128 58.9662 24.6177C58.0111 24.012 57.0001 23.4994 55.9472 23.0867C54.1134 22.3773 52.163 22.018 50.1969 22.0273ZM66.0576 27.2142L66.9333 28.047C69.0582 30.1046 71.373 32.4561 73.0571 35.2547C72.359 33.4604 71.6057 31.5804 70.6994 29.78C69.2631 28.7377 67.7042 27.876 66.0576 27.2142Z" fill="#FBB657"/>
<path d="M62.665 81.3976C60.7626 81.3502 58.8667 81.1557 56.9943 80.8159C55.9655 80.6567 54.9 80.4913 53.8651 80.3872C51.6717 80.2045 49.47 80.1411 47.2697 80.1974C45.2305 80.1974 43.1239 80.1974 41.0357 80.0504C34.4281 79.4993 28.4941 77.0191 24.3177 73.057C19.5105 68.507 17.1651 61.9852 18.1939 56.0328C18.6968 53.6157 19.4777 51.2649 20.5209 49.0272C21.4513 47.0374 22.1657 44.9536 22.652 42.8115C22.8523 41.6524 22.9872 40.483 23.0562 39.3087C23.1132 37.2246 23.4806 35.1607 24.1462 33.1849C26.3691 27.4224 32.5603 24.7769 38.9107 22.756C46.8166 20.233 55.8798 17.8937 63.406 22.0518C66.5842 23.8093 69.0031 26.5161 71.1465 29.1799C73.596 32.2418 76.2047 35.9161 76.9763 40.1599C77.4204 43.063 77.2409 46.0274 76.4497 48.8557C78.2868 54.1038 79.5116 59.6214 78.8135 65.2492C77.9316 72.2242 72.9775 79.9463 65.2064 81.1711C64.3666 81.314 63.5168 81.3897 62.665 81.3976ZM48.9783 77.7723C50.6934 77.7555 52.4083 77.827 54.1161 77.9867C55.2062 78.0969 56.3023 78.2684 57.3618 78.4276C59.9521 78.8318 62.4016 79.2053 64.8022 78.8195C71.4036 77.754 75.6352 71.03 76.4007 64.943C76.8018 60.9085 76.3853 56.8346 75.1759 52.9648C74.9861 53.5221 74.8024 54.061 74.6186 54.5876C72.708 60.099 70.2156 66.1555 64.7409 68.5131C62.0159 69.6828 59.1009 69.6705 56.2717 69.6767C54.3315 69.6017 52.3889 69.7392 50.4786 70.087C48.9455 70.4779 47.4497 71.0024 46.0082 71.6547C43.5281 72.6896 40.9561 73.7551 38.1207 73.6143C32.7502 73.3326 28.1206 67.9926 28.4023 62.4016C28.5431 59.6581 29.627 57.1963 30.7293 54.8142C31.2192 53.7241 31.7275 52.5974 32.1194 51.4828C32.5603 50.2152 32.9155 48.819 33.2523 47.4656C34.2321 43.577 35.2426 39.5598 38.6168 37.1102C41.991 34.6607 46.5777 34.9057 50.8644 35.4201C54.2509 35.8304 58.4579 36.3325 61.7342 38.6534C64.8328 40.8458 66.6332 44.2506 68.1948 47.2268C69.2175 49.1742 70.6443 51.838 70.2769 54.6488C69.836 58.3231 66.7618 60.8033 63.9142 62.8547C61.7941 64.4458 59.5815 65.9099 57.2883 67.2394C59.6153 67.2394 61.8076 67.123 63.7918 66.2657C68.3662 64.3 70.528 59.0151 72.3651 53.7731C72.8979 52.2299 73.4613 50.6071 73.9083 48.9476C73.4551 47.6861 72.9652 46.4368 72.4692 45.2059C70.9137 41.3785 69.1256 37.3736 66.5352 33.9871C64.594 31.4518 61.33 28.1634 56.78 26.908C51.8809 25.5485 45.9225 26.957 41.2868 30.5823C37.3124 33.687 34.1035 38.335 31.7275 44.3976C31.6074 44.6924 31.3772 44.929 31.0857 45.057C30.7942 45.185 30.4643 45.1945 30.1659 45.0834C29.8696 44.9634 29.632 44.7322 29.5038 44.4392C29.3756 44.1463 29.3671 43.8149 29.48 43.5158C32.0092 37.049 35.4814 32.0581 39.7987 28.6778C45.108 24.5258 51.6972 22.9887 57.423 24.5748C62.616 26.0078 66.2903 29.6882 68.4459 32.5358C71.2077 36.1488 73.0816 40.3314 74.6983 44.3118C74.6983 44.3486 74.6983 44.3853 74.7411 44.416C74.8536 43.1366 74.8 41.8481 74.5819 40.5824C73.9022 36.8653 71.6119 33.6258 69.2419 30.6802C67.2517 28.2307 65.0288 25.7077 62.2118 24.1523C55.543 20.478 47.0615 22.6764 39.6394 25.0402C33.8586 26.8774 28.2492 29.2534 26.3814 34.0728C25.8092 35.8203 25.4956 37.642 25.4506 39.4802C25.3739 40.7445 25.2287 42.0038 25.0158 43.2524C24.4916 45.5588 23.7281 47.8041 22.7377 49.9519C21.7666 52.0214 21.0352 54.1952 20.5577 56.4309C19.6697 61.5932 21.7457 67.2884 25.9711 71.2934C29.7495 74.8758 35.1568 77.1293 41.2316 77.6315C43.2096 77.7968 45.2611 77.7846 47.2452 77.7723H48.9783ZM46.0572 37.4777C43.7975 37.4777 41.7338 37.8512 40.0559 39.0699C37.3981 40.9989 36.5347 44.4282 35.6222 48.0535C35.267 49.462 34.8996 50.9133 34.3975 52.2851C33.9749 53.5098 33.4422 54.6672 32.9278 55.8062C31.9051 58.0843 30.9314 60.2338 30.815 62.5424C30.5946 66.8658 34.1403 70.9994 38.2493 71.2137C40.1477 71.3178 41.9849 70.6993 43.8894 69.9339C41.5446 69.4692 39.3925 68.3132 37.7105 66.6148C37.4946 66.3817 37.3777 66.0738 37.3846 65.7561C37.3914 65.4385 37.5214 65.1359 37.7472 64.9123C37.9806 64.6946 38.2898 64.5766 38.6089 64.5835C38.9281 64.5903 39.2319 64.7215 39.4557 64.9491C42.0032 67.6191 46.5349 68.556 51.0052 67.3312C55.249 66.1738 58.9662 63.51 62.518 60.9319C65.0655 59.0947 67.5763 57.0861 67.9008 54.3916C68.1335 52.4871 67.2088 50.5459 66.0637 48.3903C64.6124 45.6285 62.9712 42.4992 60.344 40.6376C57.57 38.6718 53.8589 38.2248 50.5827 37.8329C49.0826 37.6245 47.5714 37.5059 46.0572 37.4777Z" fill="#EB8A23"/>
<path d="M35.7141 37.5572C34.4342 37.5082 32.989 37.1959 33.0196 36.461C33.0502 35.7262 33.7667 35.1811 35.0466 35.2363C36.3265 35.2914 37.686 35.916 37.6615 36.6509C37.637 37.3857 36.994 37.6123 35.7141 37.5572Z" fill="#779E2B"/>
<path d="M49.3334 34.6546C48.0536 34.6056 46.6083 34.2933 46.639 33.5584C46.6696 32.8236 47.3861 32.2786 48.6659 32.3337C49.9458 32.3888 51.3053 33.0134 51.2747 33.7483C51.2441 34.4831 50.6133 34.7097 49.3334 34.6546Z" fill="#779E2B"/>
<path d="M39.5047 39.5107C39.4435 40.3006 39.5047 41.207 39.9701 41.2437C40.4355 41.2804 40.8152 40.8885 40.8826 40.0985C40.9499 39.3086 40.6621 38.4267 40.2151 38.3839C39.768 38.341 39.5721 38.7207 39.5047 39.5107Z" fill="#779E2B"/>
<path d="M44.6854 29.1921C44.6181 29.982 44.6854 30.8884 45.1509 30.9251C45.6163 30.9618 45.9898 30.5699 46.0572 29.7799C46.1245 28.99 45.8428 28.1081 45.3897 28.0653C44.9365 28.0224 44.7406 28.4021 44.6854 29.1921Z" fill="#779E2B"/>
<path d="M32.3337 43.5647C31.5438 43.5647 30.9191 43.1422 30.9375 42.689C30.9559 42.2358 31.5989 42.2052 32.3888 42.2358C33.1788 42.2664 33.8218 42.3522 33.8034 42.8053C33.7851 43.2585 33.1053 43.6014 32.3337 43.5647Z" fill="#227638"/>
<path d="M44.9733 39.2473C44.1833 39.2106 43.5525 38.8187 43.5709 38.3655C43.5893 37.9123 44.2323 37.8817 45.0284 37.9123C45.8245 37.943 46.4552 38.0287 46.4369 38.4819C46.4185 38.935 45.7632 39.278 44.9733 39.2473Z" fill="#227638"/>
<path d="M39.2291 36.7429C38.9903 36.3142 38.9964 35.8611 39.2291 35.7202C39.4618 35.5794 39.7007 35.91 39.9456 36.3326C40.1906 36.7551 40.3437 37.1226 40.0987 37.2634C39.8538 37.4043 39.4986 37.1715 39.2291 36.7429Z" fill="#227638"/>
<path d="M42.2176 36.1672C42.7075 36.1672 43.1178 36.351 43.13 36.6326C43.1423 36.9143 42.7442 36.9695 42.2543 36.9939C41.7644 37.0184 41.3725 36.994 41.3541 36.7184C41.3357 36.4428 41.7277 36.1917 42.2176 36.1672Z" fill="#227638"/>
<path d="M39.174 34.6852C37.1042 34.6056 35.414 34.6852 35.463 33.4972C35.512 32.3092 37.2328 31.4212 39.3026 31.5069C41.3725 31.5927 43.0198 32.6154 42.9769 33.8034C42.9341 34.9914 41.2439 34.7709 39.174 34.6852Z" fill="#164E21"/>
<path d="M42.732 41.4214C43.2586 42.5849 43.6077 43.5709 44.2752 43.2586C44.9427 42.9462 45.0529 41.7644 44.5262 40.5947C43.9996 39.4251 43.0259 38.7576 42.3584 39.027C41.6909 39.2965 42.1992 40.2824 42.732 41.4214Z" fill="#164E21"/>
<path d="M22.7683 50.7846C22.0518 51.8502 21.0292 52.9157 20.4229 52.5054C19.8167 52.0951 19.7248 51.201 20.4229 50.1355C21.121 49.07 22.3887 48.2432 22.9949 48.6535C23.6012 49.0638 23.4848 49.7252 22.7683 50.7846Z" fill="#779E2B"/>
<path d="M27.4469 37.6735C26.7304 38.7391 25.7078 39.7985 25.1015 39.3882C24.4952 38.9779 24.4034 38.0838 25.1015 37.0244C25.7996 35.965 27.0673 35.1322 27.6735 35.5425C28.2798 35.9528 28.1634 36.608 27.4469 37.6735Z" fill="#779E2B"/>
<path d="M26.4181 48.5863C27.0305 49.0518 27.8695 49.462 28.1389 49.1007C28.4084 48.7394 28.2798 48.1944 27.6429 47.7229C27.006 47.2514 26.1058 47.0309 25.8058 47.3922C25.5057 47.7535 25.7568 48.1148 26.4181 48.5863Z" fill="#779E2B"/>
<path d="M20.3555 38.7636C20.9679 39.229 21.8069 39.6393 22.0763 39.278C22.3458 38.9167 22.2111 38.3717 21.5742 37.9001C20.9373 37.4286 20.0371 37.2081 19.7677 37.5694C19.4982 37.9308 19.7187 38.2921 20.3555 38.7636Z" fill="#779E2B"/>
<path d="M26.1058 56.8167C25.6649 57.4781 25.0035 57.8026 24.6239 57.5515C24.2442 57.3005 24.5626 56.731 25.0035 56.0757C25.4444 55.4205 25.8547 54.9183 26.2283 55.1694C26.6018 55.4205 26.5529 56.1614 26.1058 56.8167Z" fill="#227638"/>
<path d="M29.0636 43.7913C28.6227 44.4527 27.9552 44.7772 27.5817 44.5262C27.2081 44.2751 27.5143 43.7056 27.9613 43.0503C28.4084 42.3951 28.8126 41.8929 29.1861 42.144C29.5597 42.3951 29.5045 43.1361 29.0636 43.7913Z" fill="#227638"/>
<path d="M23.9196 47.3431C23.4297 47.3431 23.0439 47.0798 23.0562 46.8042C23.0684 46.5286 23.4665 46.5041 23.9564 46.5225C24.4463 46.5409 24.8382 46.596 24.8259 46.8777C24.8137 47.1594 24.4218 47.3676 23.9196 47.3431Z" fill="#227638"/>
<path d="M24.9974 44.5202C25.2362 44.0915 25.6098 43.8588 25.8731 43.9935C26.1364 44.1282 25.9589 44.4957 25.72 44.9182C25.4812 45.3407 25.2546 45.6776 25.0158 45.5306C24.777 45.3836 24.7647 44.9488 24.9974 44.5202Z" fill="#227638"/>
<path d="M22.1437 46.3326C20.9802 48.0534 20.1596 49.5292 19.1798 48.8679C18.2 48.2065 18.3408 46.2775 19.4982 44.5812C20.6556 42.8849 22.3948 42.0031 23.3807 42.6645C24.3667 43.3258 23.3072 44.6179 22.1437 46.3326Z" fill="#164E21"/>
<path d="M29.7372 46.841C31.011 47.0063 32.0275 47.2268 32.1194 46.498C32.2112 45.7693 31.2621 45.0528 29.9883 44.8875C28.7146 44.7221 27.6123 45.1814 27.5388 45.9101C27.4653 46.6389 28.4635 46.6817 29.7372 46.841Z" fill="#164E21"/>
<path d="M66.2168 36.1059C65.7759 34.8811 65.5064 33.4481 66.2168 33.197C66.9271 32.946 67.6865 33.393 68.1274 34.5933C68.5683 35.7935 68.5132 37.2939 67.8273 37.5511C67.1415 37.8083 66.6638 37.3061 66.2168 36.1059Z" fill="#779E2B"/>
<path d="M74.1349 47.5636C73.6939 46.3389 73.4245 44.9059 74.1349 44.6548C74.8452 44.4037 75.6046 44.8508 76.0455 46.051C76.4864 47.2513 76.4313 48.7578 75.7454 49.0088C75.0596 49.2599 74.5758 48.7639 74.1349 47.5636Z" fill="#779E2B"/>
<path d="M65.8739 40.3558C65.1206 40.5946 64.3123 41.0233 64.447 41.4519C64.5817 41.8806 65.1023 42.0643 65.8555 41.85C66.6087 41.6357 67.3191 41.0049 67.1844 40.5762C67.0496 40.1476 66.6271 40.1108 65.8739 40.3558Z" fill="#779E2B"/>
<path d="M77.3866 41.1702C76.6334 41.4091 75.825 41.8377 75.9659 42.2664C76.1067 42.6951 76.6211 42.8788 77.3743 42.6644C78.1276 42.4501 78.8379 41.8194 78.6971 41.3907C78.5562 40.962 78.146 40.9253 77.3866 41.1702Z" fill="#779E2B"/>
<path d="M59.3704 35.2914C59.0948 34.5504 59.2173 33.8217 59.6398 33.6624C60.0624 33.5032 60.344 34.0911 60.6196 34.8321C60.8952 35.5731 61.0605 36.1977 60.6196 36.3569C60.1787 36.5161 59.6459 36.0385 59.3704 35.2914Z" fill="#227638"/>
<path d="M68.2193 45.2977C67.9437 44.5568 68.0662 43.828 68.4887 43.6688C68.9113 43.5096 69.193 44.0975 69.4685 44.8384C69.7441 45.5794 69.9094 46.2041 69.4685 46.3633C69.0276 46.5225 68.4948 46.0448 68.2193 45.2977Z" fill="#227638"/>
<path d="M68.3295 39.0575C68.6296 38.6779 69.0582 38.5003 69.2787 38.6717C69.4991 38.8432 69.2787 39.18 68.9786 39.5658C68.6786 39.9516 68.403 40.2456 68.1825 40.068C67.9621 39.8904 68.0111 39.4433 68.3295 39.0575Z" fill="#227638"/>
<path d="M70.0013 41.5745C70.2095 42.0154 70.1727 42.4747 69.9217 42.5911C69.6706 42.7074 69.4624 42.3706 69.2542 41.9236C69.046 41.4765 68.9112 41.1091 69.1623 40.9866C69.4134 40.8642 69.7931 41.1336 70.0013 41.5745Z" fill="#227638"/>
<path d="M78.2317 49.9947C77.5152 48.0474 76.7926 46.5225 77.9071 46.1122C79.0217 45.7019 80.5036 46.9451 81.2201 48.8863C81.9366 50.8276 81.6243 52.7443 80.5098 53.173C79.3952 53.6017 78.9543 51.9176 78.2317 49.9947Z" fill="#164E21"/>
<path d="M65.3472 44.0669C64.4715 45.0038 63.6999 45.702 64.2327 46.198C64.7654 46.694 65.9106 46.345 66.7863 45.408C67.662 44.4711 67.9376 43.3076 67.3987 42.8054C66.8598 42.3032 66.2229 43.13 65.3472 44.0669Z" fill="#164E21"/>
<path d="M49.0272 29.2594C47.7719 29.0083 46.394 28.4694 46.541 27.7529C46.6879 27.0365 47.4779 26.6078 48.7333 26.8589C49.9887 27.1099 51.2379 27.9489 51.091 28.696C50.944 29.4431 50.2826 29.486 49.0272 29.2594Z" fill="#779E2B"/>
<path d="M62.9344 28.5186C61.679 28.2614 60.3012 27.7286 60.4481 27.006C60.5951 26.2834 61.3851 25.8608 62.6405 26.118C63.8958 26.3752 65.1451 27.2081 64.9981 27.9245C64.8512 28.641 64.1898 28.7696 62.9344 28.5186Z" fill="#779E2B"/>
<path d="M52.4688 31.7581C52.279 32.5297 52.2116 33.436 52.6525 33.5462C53.0934 33.6565 53.5405 33.3258 53.7303 32.5542C53.9201 31.7826 53.7793 30.8701 53.3384 30.7599C52.8975 30.6497 52.6586 30.9926 52.4688 31.7581Z" fill="#779E2B"/>
<path d="M59.205 22.3826C59.0152 23.1542 58.9539 24.0666 59.3887 24.1707C59.8235 24.2748 60.2767 23.9503 60.4665 23.1848C60.6563 22.4193 60.5216 21.4946 60.0807 21.3905C59.6398 21.2864 59.3948 21.6171 59.205 22.3826Z" fill="#779E2B"/>
<path d="M44.7406 34.6361C43.9628 34.483 43.4056 34.0237 43.5158 33.5522C43.626 33.0806 44.2507 33.1725 45.0284 33.3317C45.8061 33.4909 46.4185 33.6746 46.3328 34.1156C46.247 34.5565 45.5183 34.7708 44.7406 34.6361Z" fill="#227638"/>
<path d="M57.9068 32.3583C57.129 32.2052 56.5718 31.7459 56.682 31.2743C56.7922 30.8028 57.4107 30.8947 58.1885 31.0539C58.9662 31.2131 59.5786 31.3968 59.4928 31.8377C59.4071 32.2786 58.6845 32.5175 57.9068 32.3583Z" fill="#227638"/>
<path d="M52.6525 28.9899C52.4872 28.5307 52.5607 28.0775 52.824 27.9795C53.0873 27.8815 53.2588 28.2428 53.4364 28.7021C53.614 29.1614 53.7119 29.5472 53.4364 29.6452C53.1608 29.7432 52.824 29.4492 52.6525 28.9899Z" fill="#227638"/>
<path d="M55.6716 28.886C56.1553 28.9411 56.5289 29.2105 56.4983 29.4984C56.4677 29.7862 56.0635 29.7678 55.5797 29.7127C55.0959 29.6576 54.704 29.578 54.7346 29.2963C54.7652 29.0146 55.1817 28.8309 55.6716 28.886Z" fill="#227638"/>
<path d="M52.8975 26.9446C50.8644 26.5343 49.1865 26.3322 49.4192 25.1871C49.6519 24.0419 51.4951 23.4111 53.5283 23.8214C55.5614 24.2317 57.0188 25.5055 56.7861 26.669C56.5534 27.8325 54.9306 27.3549 52.8975 26.9446Z" fill="#164E21"/>
<path d="M55.347 34.1585C55.6838 35.3833 55.8737 36.4243 56.5718 36.2284C57.2699 36.0324 57.5822 34.875 57.2393 33.638C56.8963 32.401 56.0574 31.5559 55.3531 31.7519C54.6489 31.9478 55.0102 32.9338 55.347 34.1585Z" fill="#164E21"/>
<path d="M44.3731 69.1072C43.577 69.1072 42.781 69.0704 41.9849 68.9908C39.0638 68.703 35.1446 67.6987 33.0931 64.5082C30.962 61.1952 31.8683 57.1596 32.6154 55.0102C33.1225 53.6279 33.7051 52.2745 34.3607 50.9562C35.0068 49.6665 35.5753 48.3394 36.0631 46.9819C36.5754 45.3268 36.9844 43.6416 37.2879 41.9358C38.1207 37.7778 38.9781 33.4727 42.4625 30.7721C45.947 28.0715 51.4645 28.0777 55.843 30.7721C59.9276 33.3135 62.5364 37.5083 64.3613 40.9254C65.6473 43.326 66.8108 45.9347 66.5597 48.7149C66.2168 52.5239 63.406 55.396 60.5584 58.0108C58.8437 59.5847 56.8841 61.3667 54.5509 62.4506C51.7891 63.7244 48.819 63.755 46.59 62.5425C43.3321 60.7604 42.2298 56.9392 41.4521 53.5037C40.509 49.3395 39.817 45.3101 41.6725 41.7399C42.5169 40.2186 43.7445 38.9446 45.2334 38.0444C46.7223 37.1442 48.4207 36.6491 50.1602 36.6081C51.8671 36.584 53.5583 36.9358 55.1141 37.6385C56.6698 38.3413 58.0518 39.3777 59.1622 40.6743C60.3882 42.0548 61.2682 43.7073 61.7292 45.4952C62.1903 47.283 62.2193 49.1549 61.8138 50.9562C61.3543 52.7844 60.3862 54.445 59.0216 55.7456C57.6571 57.0461 55.952 57.9335 54.1039 58.3048C50.252 58.9539 46.1429 56.7187 44.7467 53.222C43.2586 49.4743 45.1264 44.8875 48.7455 43.4239C49.6999 43.059 50.7223 42.9061 51.7417 42.9759C52.7611 43.0457 53.7531 43.3365 54.6489 43.8281C55.5116 44.2639 56.2677 44.8844 56.8635 45.6453C57.4594 46.4063 57.8804 47.2891 58.0966 48.2311C58.1548 48.5441 58.089 48.8674 57.9129 49.1326C57.7369 49.3978 57.4645 49.584 57.1535 49.6518C56.8415 49.7103 56.5189 49.6452 56.2539 49.4704C55.9888 49.2957 55.802 49.0248 55.7328 48.7149C55.5882 48.121 55.3146 47.5663 54.9315 47.09C54.5484 46.6137 54.0651 46.2277 53.516 45.9592C52.9343 45.6324 52.2884 45.4362 51.6231 45.3844C50.9579 45.3326 50.2894 45.4263 49.6641 45.6591C47.2636 46.6451 45.9898 49.8356 46.9941 52.3524C47.5605 53.6129 48.5292 54.6497 49.7483 55.3003C50.9674 55.9508 52.368 56.1784 53.7303 55.9471C55.1175 55.6604 56.3951 54.9865 57.415 54.0035C58.4348 53.0204 59.1553 51.7685 59.4928 50.3928C59.8083 48.9688 59.7801 47.4901 59.4106 46.0791C59.041 44.6681 58.3408 43.3654 57.3679 42.2788C56.4947 41.2442 55.4046 40.4143 54.1748 39.8481C52.9451 39.2819 51.6058 38.9933 50.252 39.0025C48.9382 39.0411 47.6568 39.4189 46.5322 40.0992C45.4076 40.7795 44.4782 41.7392 43.8343 42.885C42.3523 45.7265 42.983 49.2905 43.8343 53.0016C44.5262 56.0635 45.402 59.1254 47.778 60.4542C49.3334 61.3055 51.4951 61.2442 53.565 60.2889C55.6348 59.3336 57.2883 57.7904 58.9478 56.2656C61.5504 53.8712 63.9081 51.4829 64.1776 48.5312C64.3735 46.3817 63.3692 44.171 62.2547 42.0951C60.5768 38.9658 58.1885 35.0894 54.5938 32.8481C51.6972 31.0477 47.135 30.2271 43.9628 32.6828C41.1949 34.8322 40.46 38.5126 39.6762 42.4074C39.3549 44.2126 38.9213 45.9961 38.3779 47.7473C37.8479 49.1982 37.2345 50.6172 36.5408 51.9973C35.9204 53.232 35.3724 54.5018 34.8996 55.8001C34.2872 57.5148 33.5462 60.7482 35.1201 63.1977C36.6939 65.6472 39.8293 66.3576 42.2176 66.5903C52.279 67.5701 62.5425 61.5688 66.6148 52.3157C70.6872 43.0626 68.1764 31.4458 60.6502 24.6912C60.4168 24.475 60.2766 24.1764 60.2595 23.8586C60.2423 23.5408 60.3495 23.2289 60.5584 22.9888C60.7748 22.7535 61.0747 22.6122 61.3939 22.595C61.7132 22.5779 62.0265 22.6862 62.2669 22.8969C70.5463 30.3251 73.2898 43.1055 68.8255 53.2894C64.6675 62.7384 54.6428 69.1072 44.3731 69.1072Z" fill="#FBB657"/>
<path d="M30.0863 64.2325C30.0312 65.5124 29.7127 66.9515 28.9779 66.9209C28.243 66.8903 27.7041 66.1738 27.7531 64.8939C27.8021 63.614 28.4451 62.2484 29.18 62.2851C29.9148 62.3219 30.1414 62.9404 30.0863 64.2325Z" fill="#779E2B"/>
<path d="M27.2265 50.601C27.1714 51.8808 26.8529 53.3261 26.1242 53.2954C25.3955 53.2648 24.8443 52.5422 24.8994 51.2623C24.9545 49.9824 25.5914 48.623 26.3263 48.6536C27.0611 48.6842 27.2816 49.3211 27.2265 50.601Z" fill="#779E2B"/>
<path d="M32.0459 60.442C32.8359 60.5155 33.7483 60.442 33.7851 59.9827C33.8218 59.5234 33.4299 59.1438 32.6399 59.0703C31.8499 58.9968 30.9681 59.2846 30.9252 59.7316C30.8824 60.1787 31.2682 60.3746 32.0459 60.442Z" fill="#779E2B"/>
<path d="M21.7457 55.2368C22.5356 55.3042 23.442 55.2368 23.4848 54.7775C23.5277 54.3182 23.1297 53.9324 22.3397 53.8651C21.5497 53.7977 20.6679 54.0733 20.625 54.5264C20.5821 54.9796 20.9557 55.1633 21.7457 55.2368Z" fill="#779E2B"/>
<path d="M36.0815 67.6313C36.0509 68.4213 35.6528 69.0459 35.1997 69.0275C34.7465 69.0091 34.7159 68.36 34.7526 67.57C34.7894 66.7801 34.8751 66.1371 35.3283 66.1616C35.7814 66.1861 36.1182 66.8352 36.0815 67.6313Z" fill="#227638"/>
<path d="M31.8009 54.9794C31.7703 55.7694 31.3723 56.394 30.9191 56.3756C30.4659 56.3573 30.4353 55.7082 30.4721 54.9182C30.5088 54.1282 30.5946 53.4852 31.0477 53.5097C31.5009 53.5342 31.8377 54.1833 31.8009 54.9794Z" fill="#227638"/>
<path d="M29.2841 60.687C28.8554 60.9258 28.3961 60.9197 28.2614 60.687C28.1267 60.4543 28.4512 60.2154 28.8738 59.9766C29.2963 59.7378 29.6637 59.5786 29.8046 59.8235C29.9454 60.0685 29.7066 60.4481 29.2841 60.687Z" fill="#227638"/>
<path d="M28.7146 57.723C28.7146 57.2331 28.9044 56.8228 29.1861 56.8167C29.4678 56.8106 29.5168 57.1964 29.5413 57.6863C29.5658 58.1762 29.5413 58.5743 29.2596 58.5865C28.9779 58.5988 28.7391 58.2129 28.7146 57.723Z" fill="#227638"/>
<path d="M27.2265 60.7604C27.1346 62.8302 27.2265 64.5204 26.0017 64.4653C24.777 64.4102 23.9258 62.6955 24.0176 60.6195C24.1095 58.5436 25.1444 56.9146 26.3263 56.9452C27.5082 56.9759 27.3183 58.6905 27.2265 60.7604Z" fill="#164E21"/>
<path d="M33.9688 57.2269C35.1385 56.7003 36.1244 56.3573 35.8059 55.6899C35.4875 55.0224 34.3117 54.906 33.1421 55.4327C31.9724 55.9593 31.2682 56.9207 31.5683 57.5882C31.8683 58.2557 32.7992 57.7536 33.9688 57.2269Z" fill="#164E21"/>
<path d="M43.2709 77.2212C44.3364 77.9376 45.3958 78.9664 44.9855 79.5727C44.5752 80.179 43.675 80.2647 42.6156 79.5727C41.5562 78.8807 40.7295 77.6008 41.1398 76.9946C41.5501 76.3883 42.2114 76.4985 43.2709 77.2212Z" fill="#779E2B"/>
<path d="M30.172 72.4997C31.2376 73.2162 32.297 74.245 31.8867 74.8513C31.4764 75.4575 30.5762 75.5432 29.5168 74.8513C28.4574 74.1593 27.6306 72.8794 28.0409 72.2731C28.4512 71.6669 29.1126 71.7771 30.172 72.4997Z" fill="#779E2B"/>
<path d="M41.0663 73.5592C41.5439 72.9468 41.9542 72.1078 41.5868 71.8384C41.2194 71.5689 40.6866 71.6975 40.2151 72.3344C39.7435 72.9713 39.5108 73.8715 39.8783 74.1409C40.2457 74.4104 40.607 74.196 41.0663 73.5592Z" fill="#779E2B"/>
<path d="M31.2682 79.5911C31.7459 78.9787 32.1562 78.1459 31.7887 77.8765C31.4213 77.607 30.8885 77.7356 30.417 78.3725C29.9455 79.0094 29.7127 79.9034 30.0802 80.1729C30.4476 80.4423 30.766 80.228 31.2682 79.5911Z" fill="#779E2B"/>
<path d="M49.3151 73.8959C49.9703 74.343 50.2949 75.0043 50.0438 75.384C49.7927 75.7637 49.2232 75.4452 48.568 74.9982C47.9127 74.5512 47.4105 74.147 47.6677 73.7734C47.9249 73.3999 48.6598 73.455 49.3151 73.8959Z" fill="#227638"/>
<path d="M36.302 70.9013C36.9572 71.3483 37.2818 72.0097 37.0246 72.3833C36.7674 72.7568 36.204 72.4506 35.5487 72.0036C34.8935 71.5566 34.3975 71.1463 34.6547 70.7788C34.9119 70.4114 35.6406 70.4543 36.302 70.9013Z" fill="#227638"/>
<path d="M39.8415 76.0455C39.8415 76.5293 39.5782 76.9212 39.2965 76.909C39.0148 76.8967 38.9964 76.4987 39.0209 76.0088C39.0454 75.5189 39.0944 75.1208 39.3761 75.1331C39.6578 75.1453 39.8415 75.5556 39.8415 76.0455Z" fill="#227638"/>
<path d="M37.0123 74.9676C36.5898 74.7288 36.3509 74.3552 36.4857 74.0919C36.6204 73.8286 36.9878 74.0123 37.4165 74.2511C37.8451 74.4899 38.1758 74.7104 38.0289 74.9554C37.8819 75.2003 37.441 75.1881 37.0123 74.9676Z" fill="#227638"/>
<path d="M38.8188 77.8336C40.5335 78.9971 42.0093 79.8177 41.3419 80.8036C40.6744 81.7895 38.7454 81.6303 37.0552 80.4668C35.365 79.3033 34.4893 77.5641 35.1507 76.5843C35.812 75.6045 37.1042 76.6639 38.8188 77.8336Z" fill="#164E21"/>
<path d="M39.3516 70.2338C39.5169 68.9662 39.7435 67.9496 39.0148 67.8516C38.2861 67.7537 37.5635 68.709 37.3981 69.9827C37.2328 71.2565 37.6859 72.3588 38.4085 72.4322C39.1312 72.5057 39.1863 71.5137 39.3516 70.2338Z" fill="#164E21"/>
<path d="M43.5648 75.3656H43.1912C39.3639 75.237 35.959 73.1121 33.2156 71.4035C31.0294 70.0379 27.7041 67.9742 26.6876 64.6C26.4958 63.9255 26.3546 63.2378 26.265 62.5424C26.2108 61.628 25.949 60.7379 25.4996 59.9398C25.1961 59.5747 24.8554 59.2422 24.483 58.9477C23.7619 58.4098 23.1629 57.7252 22.7255 56.9391C22.4288 56.2623 22.2922 55.5263 22.3262 54.7882C22.3602 54.05 22.5639 53.3297 22.9214 52.683C23.5248 51.6135 24.2937 50.6462 25.1995 49.8171C26.8407 48.1698 29.3331 46.0877 32.0643 47.0797C33.2269 47.593 34.2236 48.42 34.9425 49.468L35.1262 49.7007C36.9143 51.8808 38.7025 53.1791 40.5764 53.6751C41.5194 53.92 42.7197 53.8404 43.0871 53.1974C43.4546 52.5544 43.0871 51.7093 42.8116 51.0296C42.2343 49.8119 41.567 48.639 40.8152 47.5207C40.1658 46.531 39.567 45.509 39.0209 44.4588C37.4532 41.3969 37.1838 38.3901 38.3228 36.063C39.3761 33.8523 41.6909 32.2356 44.5201 31.7335C46.9696 31.2987 49.3702 31.6784 51.636 32.1499C53.8856 32.544 56.0607 33.2835 58.0844 34.3422C60.2774 35.5004 61.9622 37.4318 62.8119 39.7618C63.2724 41.4392 63.428 43.1857 63.2712 44.918C63.2712 45.3957 63.2406 45.8795 63.2406 46.351C63.2406 47.3063 63.3018 48.2616 63.3692 49.2659C63.5345 51.8318 63.706 54.4773 62.7936 57.0248C61.7667 59.6037 59.9486 61.7906 57.6006 63.2711C53.6617 65.9012 48.889 66.981 44.2017 66.3024C43.0994 66.137 41.5072 65.788 40.4233 64.6183C40.0875 64.2514 39.8297 63.8202 39.6655 63.3507C39.5012 62.8813 39.4341 62.3833 39.468 61.8871C39.4894 61.4877 39.5942 61.0972 39.7756 60.7407C39.957 60.3842 40.211 60.0697 40.5213 59.8173C40.7731 59.622 41.0912 59.5326 41.4079 59.568C41.7247 59.6035 42.0151 59.761 42.2176 60.0071C42.4128 60.259 42.5022 60.577 42.4668 60.8938C42.4314 61.2105 42.2739 61.5009 42.0277 61.7034C41.9315 61.7993 41.8766 61.9289 41.8746 62.0647C41.8568 62.3989 41.9712 62.7266 42.1931 62.9772C42.6279 63.4487 43.3566 63.7365 44.5569 63.9141C48.6487 64.5085 52.8156 63.566 56.2533 61.2686C57.7231 60.2766 59.6643 58.5925 60.54 56.2042C61.2871 54.1344 61.1524 51.8441 60.9748 49.4252C60.9136 48.4209 60.8462 47.3859 60.8462 46.3633C60.8462 45.8611 60.8462 45.3528 60.8768 44.8507C61.015 43.3989 60.9011 41.9341 60.54 40.5211C59.8744 38.7616 58.5807 37.3109 56.9086 36.4488C55.1027 35.5132 53.1631 34.8625 51.1583 34.5198C49.1313 34.0973 46.9819 33.7543 44.961 34.1156C42.9402 34.4769 41.2255 35.6221 40.5151 37.1102C39.4618 39.3209 40.4845 42.0092 41.1949 43.3748C41.6787 44.3363 42.2604 45.212 42.8728 46.2102C43.6881 47.4279 44.4107 48.7053 45.0345 50.0314C45.8061 51.7583 45.8612 53.2219 45.1999 54.3732C44.1772 56.1675 41.844 56.4798 39.9824 55.9899C37.5941 55.3775 35.4018 53.7976 33.2829 51.2133L33.087 50.9745C32.6253 50.2713 31.9933 49.6962 31.2498 49.3027C30.1598 48.9108 28.8003 49.5966 26.9203 51.4766C26.1987 52.1341 25.5795 52.8958 25.0831 53.7363C24.898 54.0507 24.7855 54.4024 24.7537 54.7658C24.7219 55.1292 24.7717 55.4951 24.8994 55.8368C25.2018 56.3165 25.595 56.7326 26.0568 57.0616C26.5815 57.4771 27.0543 57.9541 27.4653 58.4823C28.1668 59.589 28.5873 60.8503 28.6901 62.1566C28.761 62.7335 28.8736 63.3045 29.0269 63.8651C29.7434 66.186 32.0398 67.7721 34.5383 69.3275C37.1654 70.9687 40.1355 72.8242 43.3137 72.9283C46.1674 73.0263 48.966 71.7036 51.5992 70.3257C55.9778 68.0538 59.45 65.935 62.1812 62.9772C63.706 61.3237 65.5309 58.7272 65.537 55.7694C65.5034 54.7376 65.3659 53.7118 65.1267 52.7075C64.842 51.4865 64.6921 50.238 64.6797 48.9843C64.733 47.9128 64.8868 46.8487 65.139 45.806C65.3191 45.0374 65.45 44.2581 65.5309 43.4728C65.6121 41.2041 65.0243 38.9616 63.8407 37.0244C62.5638 34.9689 61.0891 33.043 59.4377 31.2742C58.6882 30.3348 57.8357 29.4824 56.8963 28.7328C55.7206 27.9685 54.4477 27.3651 53.1118 26.9385C51.091 26.1976 49.0272 25.4015 46.8839 25.3035C43.4791 25.1443 39.8415 26.8099 36.7796 29.9208C36.5512 30.1416 36.246 30.265 35.9284 30.265C35.6108 30.265 35.3056 30.1416 35.0772 29.9208C34.8564 29.6925 34.7331 29.3872 34.7331 29.0696C34.7331 28.752 34.8564 28.4468 35.0772 28.2184C38.5739 24.636 42.9218 22.707 47.0064 22.8784C49.4926 22.9887 51.8748 23.8766 53.9753 24.6544C55.5126 25.1751 56.9729 25.9001 58.3171 26.8099C59.4132 27.6537 60.406 28.6239 61.2749 29.7004C63.0141 31.5843 64.5628 33.6355 65.8983 35.8242C67.322 38.174 68.0168 40.8934 67.8947 43.6382C67.8095 44.5328 67.6642 45.4207 67.4599 46.2959C67.2381 47.1915 67.1007 48.1059 67.0496 49.0271C67.0682 50.1062 67.2037 51.18 67.4538 52.2299C67.7246 53.3935 67.8784 54.5813 67.9131 55.7756C67.9131 59.505 65.7269 62.6403 63.9081 64.6122C60.7666 68.0109 56.6514 70.3931 52.6709 72.4629C49.8601 73.9633 46.8472 75.3656 43.5648 75.3656Z" fill="#FFD576"/>
<path d="M47.8025 82.4631C42.4074 82.4631 36.9388 80.3749 31.3723 78.0111C28.0287 76.5904 24.5749 75.1207 21.6171 72.763C15.9403 68.2497 12.6273 60.5154 12.9702 52.6034C13.2764 45.6161 16.2894 38.3962 21.4578 32.2907C25.7445 27.2447 31.4152 22.8662 38.8495 18.8857C39.1323 18.741 39.4603 18.7118 39.7642 18.8043C40.0682 18.8969 40.3242 19.1039 40.4784 19.3817C40.625 19.6652 40.6552 19.9947 40.5626 20.3001C40.47 20.6054 40.2618 20.8626 39.9824 21.0168C32.8298 24.8442 27.3735 29.0451 23.3011 33.8462C18.4756 39.5536 15.6647 46.2469 15.383 52.7075C15.0768 59.8724 18.0408 66.8352 23.1174 70.8769C25.8241 73.0263 29.1249 74.4287 32.3031 75.7759C39.1863 78.7031 45.8857 81.1894 52.1443 79.4502C56.5167 78.2561 60.1052 75.1635 63.357 71.9608C68.948 66.4493 72.3773 61.8197 74.4839 56.9085C77.1233 50.7356 77.3192 44.2505 75.0228 39.1494C74.8979 38.8565 74.8919 38.5264 75.0062 38.2292C75.1206 37.9319 75.3462 37.6909 75.6352 37.5572C75.9281 37.4323 76.2582 37.4263 76.5554 37.5406C76.8527 37.6549 77.0937 37.8806 77.2274 38.1696C79.8055 43.9137 79.6157 51.1031 76.7069 57.8944C74.4717 63.1119 70.8831 67.9926 65.0716 73.7183C61.5994 77.1293 57.7231 80.4545 52.824 81.814C51.1877 82.259 49.4981 82.4774 47.8025 82.4631Z" fill="#FFD576"/>
<path d="M66.3699 82.4265C66.1364 82.4254 65.9032 82.4091 65.6718 82.3775C65.3561 82.329 65.0718 82.1591 64.8797 81.9039C64.6875 81.6488 64.6025 81.3287 64.643 81.0119C64.6915 80.6974 64.8606 80.4142 65.1143 80.2221C65.3681 80.0301 65.6866 79.9444 66.0025 79.9831C66.5764 80.019 67.1515 79.9339 67.6906 79.7335C68.2296 79.5331 68.7206 79.2217 69.1317 78.8196C70.1044 77.8466 70.9296 76.7366 71.5813 75.525C75.5556 68.9174 79.4136 61.7219 80.767 53.8528C81.2836 50.169 81.5231 46.4516 81.4835 42.732C81.5324 39.6211 81.5876 36.4061 80.4485 33.5463C79.0339 29.9883 75.8434 27.349 73.2286 25.4506C72.9736 25.26 72.8028 24.9775 72.7526 24.6632C72.7023 24.3488 72.7763 24.0272 72.9591 23.7665C73.1497 23.5116 73.4322 23.3408 73.7465 23.2905C74.0609 23.2402 74.3825 23.3143 74.6432 23.4971C77.5275 25.5853 81.0487 28.5186 82.696 32.6828C84.0065 35.9774 83.9513 39.5966 83.9207 42.7871C83.9533 46.6323 83.6974 50.4745 83.1553 54.2815C81.759 62.5425 77.7785 69.9829 73.6817 76.7926C72.9107 78.2184 71.9256 79.5175 70.7607 80.6445C69.5637 81.7545 68.0019 82.3884 66.3699 82.4265Z" fill="#FFD576"/>
<path d="M53.6691 58.1577C53.1026 58.1591 52.544 58.0247 52.0402 57.7658C50.7664 57.1044 49.9458 55.702 49.7805 53.9139C49.7097 52.1092 49.9991 50.3085 50.6317 48.6168L50.7297 48.2922C51.2267 46.9696 51.5259 45.5809 51.6176 44.1709C51.6176 43.0441 51.2686 41.5867 50.2153 40.8579C49.9726 40.7 49.7003 40.5931 49.415 40.5436C49.1298 40.4942 48.8374 40.5032 48.5557 40.5701C48.37 40.6048 48.1933 40.677 48.0364 40.7823C47.8795 40.8876 47.7458 41.0238 47.6433 41.1825C47.4849 41.4593 47.2249 41.6634 46.9184 41.7514C46.6119 41.8395 46.2832 41.8045 46.0021 41.654C45.7253 41.4957 45.5212 41.2356 45.4332 40.9292C45.3451 40.6227 45.38 40.294 45.5305 40.0128C45.7904 39.5583 46.1427 39.1632 46.5646 38.8531C46.9865 38.543 47.4687 38.3248 47.9801 38.2124C48.5889 38.0705 49.2204 38.0549 49.8355 38.1666C50.4506 38.2782 51.0363 38.5147 51.5564 38.8616C52.3675 39.4831 53.0146 40.2933 53.4415 41.2218C53.8684 42.1503 54.0621 43.1689 54.0059 44.1893C53.9135 45.8369 53.575 47.4614 53.0016 49.0087L52.9036 49.3333C52.3719 50.7217 52.1181 52.201 52.1565 53.6873C52.2239 54.4099 52.5117 55.2979 53.1241 55.6163C53.7365 55.9347 54.7836 55.5061 55.2552 54.8692C55.8429 53.9085 56.0949 52.7798 55.9716 51.6603C55.9715 51.3378 55.9199 51.0173 55.8186 50.7111C55.7392 50.899 55.6141 51.064 55.4548 51.1913C55.2954 51.3185 55.1068 51.404 54.9061 51.4399C54.5917 51.4901 54.27 51.4159 54.0094 51.233C53.7487 51.0501 53.5696 50.7728 53.5099 50.4601C53.4454 50.074 53.4999 49.6774 53.6661 49.323C53.8324 48.9686 54.1025 48.6732 54.4407 48.4759C54.8394 48.2312 55.2998 48.1058 55.7675 48.1145C56.2353 48.1232 56.6907 48.2656 57.0801 48.5249C58.3048 49.419 58.3661 51.0357 58.3844 51.5868C58.4579 53.5832 58.0721 55.1325 57.1964 56.3205C56.7837 56.8715 56.2525 57.3227 55.6419 57.6407C55.0314 57.9587 54.3571 58.1354 53.6691 58.1577Z" fill="#FFD576"/>
<path d="M15.7933 39.6699C14.9115 38.0288 14.5135 36.0691 15.8607 34.8689C16.9079 33.9381 18.6593 34.2075 19.6881 35.1689C20.6532 36.2111 21.2043 37.5701 21.2374 38.9902C21.3476 40.3558 20.9741 43.1973 18.9471 42.7747C18.4113 42.6278 17.9235 42.3427 17.5325 41.948C16.8362 41.2852 16.2492 40.5163 15.7933 39.6699Z" fill="#FBB657"/>
<path d="M17.1834 37.9799C16.6568 37.0123 16.4241 35.861 17.2201 35.1507C17.5558 34.9052 17.9683 34.7882 18.3829 34.8208C18.7975 34.8534 19.1866 35.0334 19.4798 35.3283C20.0475 35.9437 20.3719 36.7448 20.3923 37.5818C20.4596 38.3902 20.2392 40.0681 19.045 39.817C18.7265 39.732 18.4367 39.5627 18.2061 39.3271C17.794 38.9368 17.4486 38.4817 17.1834 37.9799Z" fill="#FFE7CA"/>
<path d="M68.997 49.7864C69.9278 48.1697 71.3853 46.8041 73.1122 47.3369C74.4533 47.7411 75.1453 49.3761 74.8636 50.7479C74.4844 52.1201 73.6122 53.3041 72.4141 54.0731C71.3118 54.8876 68.6969 56.0572 67.9927 54.116C67.8374 53.5817 67.8227 53.0164 67.9498 52.4748C68.152 51.5282 68.5056 50.6204 68.997 49.7864Z" fill="#FBB657"/>
<path d="M71.1403 50.0804C71.6915 49.1251 72.5488 48.3229 73.5898 48.623C73.9742 48.782 74.2895 49.0727 74.4791 49.443C74.6687 49.8133 74.7204 50.239 74.6248 50.6438C74.3979 51.4496 73.8866 52.1458 73.1857 52.6035C72.5304 53.0811 70.9933 53.7731 70.5769 52.6035C70.4905 52.2867 70.4905 51.9526 70.5769 51.6359C70.6809 51.0908 70.8711 50.5657 71.1403 50.0804Z" fill="#FFE7CA"/>
<path d="M59.9215 28.8677C59.0397 27.2265 58.6416 25.273 59.9889 24.0727C61.036 23.1419 62.7874 23.4114 63.8162 24.3728C64.7815 25.4125 65.3326 26.7696 65.3656 28.1879C65.4758 29.5597 65.1023 32.4011 63.0753 31.9725C62.5389 31.8303 62.0504 31.5469 61.6607 31.1519C60.9644 30.4867 60.3774 29.7159 59.9215 28.8677Z" fill="#FBB657"/>
<path d="M61.2749 27.1835C60.7482 26.2159 60.5155 25.0585 61.3116 24.3543C61.6473 24.1088 62.0598 23.9918 62.4744 24.0244C62.8889 24.057 63.2781 24.237 63.5713 24.5319C64.1468 25.1527 64.4737 25.9636 64.4899 26.8099C64.5572 27.6183 64.3368 29.2901 63.1426 29.039C62.8233 28.9592 62.5327 28.7916 62.3037 28.5552C61.8888 28.1567 61.5413 27.6934 61.2749 27.1835Z" fill="#FFE7CA"/>
<path d="M52.9404 50.0804C53.8712 48.4637 55.3286 47.0981 57.0556 47.6308C58.4028 48.035 59.0887 49.6701 58.807 51.0479C58.4288 52.4207 57.5564 53.605 56.3574 54.3731C55.2552 55.1876 52.6403 56.3573 51.9361 54.4099C51.7738 53.8789 51.7589 53.3137 51.8932 52.7748C52.0932 51.8257 52.447 50.9155 52.9404 50.0804Z" fill="#FBB657"/>
<path d="M55.0837 50.3622C55.6348 49.4069 56.4983 48.5985 57.5332 48.9047C57.9179 49.0616 58.2338 49.351 58.4236 49.7205C58.6134 50.0901 58.6647 50.5154 58.5681 50.9194C58.3462 51.7293 57.8339 52.429 57.129 52.8852C56.4799 53.3629 54.9367 54.0548 54.5203 52.8852C54.4338 52.5685 54.4338 52.2344 54.5203 51.9176C54.6259 51.373 54.816 50.8482 55.0837 50.3622Z" fill="#FFE7CA"/>
<path d="M27.0673 22.0947C28.0042 20.4841 29.4617 19.1124 31.1886 19.6451C32.5297 20.0493 33.2217 21.6844 32.94 23.0561C32.5587 24.4273 31.687 25.6106 30.4905 26.3813C29.3882 27.1958 26.7733 28.3716 26.0691 26.4242C25.9138 25.8899 25.8991 25.3246 26.0262 24.783C26.2288 23.8374 26.5802 22.93 27.0673 22.0947Z" fill="#FBB657"/>
<path d="M29.2167 22.3641C29.7678 21.4149 30.6252 20.6066 31.6662 20.9128C32.0506 21.0697 32.3659 21.3594 32.5547 21.7291C32.7435 22.0989 32.7933 22.5242 32.695 22.9275C32.4728 23.7339 31.9631 24.4309 31.2621 24.8871C30.6068 25.3709 29.0636 26.0629 28.6533 24.8871C28.5669 24.5704 28.5669 24.2363 28.6533 23.9196C28.7573 23.3745 28.9475 22.8494 29.2167 22.3641Z" fill="#FFE7CA"/>
<path d="M67.8335 71.4157C68.7704 69.8051 70.2279 68.4334 71.9486 68.9662C73.2959 69.3704 73.9879 71.0054 73.7062 72.3833C73.3218 73.7529 72.4508 74.9353 71.2567 75.7085C70.1544 76.5168 67.5395 77.6926 66.8353 75.7452C66.674 75.2119 66.6592 74.6451 66.7924 74.1041C66.995 73.1585 67.3464 72.2511 67.8335 71.4157Z" fill="#FBB657"/>
<path d="M69.9829 71.6852C70.5341 70.736 71.3914 69.9276 72.4324 70.2338C72.8171 70.3907 73.133 70.6801 73.3228 71.0496C73.5127 71.4192 73.5639 71.8445 73.4674 72.2486C73.2467 73.0557 72.7366 73.7532 72.0344 74.2082C71.3791 74.692 69.8359 75.384 69.4256 74.2082C69.3267 73.8946 69.3161 73.5598 69.395 73.2406C69.5072 72.6942 69.7056 72.1692 69.9829 71.6852Z" fill="#FFE7CA"/>
<path d="M25.8119 41.9481C26.3875 40.9499 27.2877 40.111 28.3533 40.4294C28.7535 40.5962 29.0818 40.8991 29.2801 41.2847C29.4785 41.6702 29.5341 42.1134 29.4372 42.536C29.2059 43.3825 28.6721 44.1146 27.9369 44.5936C27.251 45.0958 25.6343 45.8184 25.1995 44.5936C25.1107 44.2606 25.1107 43.9101 25.1995 43.577C25.3178 43.0056 25.5244 42.456 25.8119 41.9481Z" fill="#FBB657"/>
<path d="M27.1346 42.1195C27.4776 41.5071 28.0103 41.0356 28.6411 41.2254C28.87 41.326 29.0566 41.5036 29.1684 41.7272C29.2802 41.9509 29.3103 42.2067 29.2535 42.4502C29.1183 42.9538 28.8021 43.3899 28.3655 43.6749C27.9613 43.9689 27.0121 44.3975 26.7549 43.6749C26.6964 43.475 26.6964 43.2625 26.7549 43.0626C26.8333 42.7309 26.9613 42.413 27.1346 42.1195Z" fill="#FFE7CA"/>
<path d="M46.7247 25.5179C47.7474 26.0507 48.6292 26.9142 48.3536 27.9675C48.2046 28.3748 47.9163 28.7163 47.5397 28.9315C47.1632 29.1467 46.7226 29.2217 46.296 29.1432C45.4398 28.9483 44.6855 28.4447 44.1772 27.7286C43.6444 27.0673 42.8483 25.4873 44.0302 24.9974C44.361 24.9002 44.7116 24.8918 45.0468 24.9729C45.6317 25.0633 46.1983 25.2473 46.7247 25.5179Z" fill="#FBB657"/>
<path d="M46.6145 26.8466C47.2268 27.1651 47.7412 27.6734 47.5759 28.3102C47.4895 28.5539 47.318 28.7581 47.0929 28.8853C46.8679 29.0125 46.6044 29.054 46.3511 29.0022C45.8553 28.8825 45.42 28.5865 45.1264 28.1694C44.8079 27.7775 44.3425 26.8466 45.0406 26.5588C45.2364 26.4862 45.449 26.4713 45.653 26.516C45.9882 26.5778 46.3122 26.6892 46.6145 26.8466Z" fill="#FFE7CA"/>
<path d="M40.1661 57.5455C41.1888 58.0782 42.0706 58.9417 41.8012 59.995C41.652 60.4035 41.3628 60.7459 40.9849 60.9612C40.607 61.1765 40.1649 61.2508 39.7374 61.1708C38.8812 60.9758 38.1269 60.4722 37.6186 59.7562C37.0858 59.1009 36.2897 57.5148 37.4777 57.0311C37.8021 56.9176 38.1508 56.8922 38.4882 56.9576C39.075 57.0636 39.6414 57.262 40.1661 57.5455Z" fill="#FBB657"/>
<path d="M40.0558 58.8803C40.6682 59.1926 41.1826 59.7009 41.0234 60.3378C40.936 60.5811 40.7646 60.7851 40.54 60.9131C40.3154 61.0411 40.0525 61.0847 39.7986 61.0359C39.3021 60.9141 38.8668 60.6159 38.5739 60.1969C38.2616 59.8111 37.79 58.8742 38.4881 58.5864C38.6853 58.5203 38.8961 58.5056 39.1005 58.5435C39.4345 58.6057 39.7568 58.7193 40.0558 58.8803Z" fill="#FFE7CA"/>
<path d="M40.1661 73.3509C41.1888 73.8836 42.0706 74.7471 41.8012 75.8004C41.652 76.209 41.3628 76.5513 40.9849 76.7666C40.607 76.9819 40.1649 77.0562 39.7374 76.9762C38.8812 76.7813 38.1269 76.2776 37.6186 75.5616C37.0858 74.9063 36.2897 73.3203 37.4777 72.8365C37.8021 72.723 38.1508 72.6976 38.4882 72.763C39.075 72.869 39.6414 73.0674 40.1661 73.3509Z" fill="#FBB657"/>
<path d="M40.0558 74.6552C40.6682 74.9675 41.1826 75.4758 41.0234 76.1127C40.936 76.356 40.7646 76.56 40.54 76.688C40.3154 76.8161 40.0525 76.8596 39.7986 76.8108C39.3021 76.689 38.8668 76.3908 38.5739 75.9718C38.2616 75.586 37.79 74.6491 38.4881 74.3613C38.6853 74.2952 38.8961 74.2805 39.1005 74.3184C39.4345 74.3806 39.7568 74.4942 40.0558 74.6552Z" fill="#FFE7CA"/>
<path d="M22.156 77.0252C21.0904 76.5843 20.1351 75.8005 20.3188 74.7043C20.4312 74.285 20.6884 73.919 21.0449 73.6713C21.4014 73.4236 21.834 73.3101 22.2662 73.3509C23.1351 73.4746 23.9295 73.9099 24.5014 74.5757C25.1138 75.1881 26.014 76.6945 24.8811 77.2824C24.5665 77.4241 24.2197 77.479 23.8767 77.4416C23.2842 77.398 22.7029 77.2573 22.156 77.0252Z" fill="#FBB657"/>
<path d="M22.1498 75.6595C21.5375 75.3962 20.9251 74.9369 21.0598 74.2878C21.1244 74.0391 21.2762 73.8219 21.4875 73.6758C21.6988 73.5297 21.9556 73.4643 22.2111 73.4917C22.7242 73.5615 23.1932 73.8189 23.5277 74.2143C23.8767 74.5756 24.4279 75.4391 23.7543 75.8126C23.5625 75.8992 23.3506 75.931 23.1419 75.9045C22.8005 75.8748 22.4658 75.7922 22.1498 75.6595Z" fill="#FFE7CA"/>
<path d="M55.9655 30.178C55.0898 30.7169 53.0077 31.6538 52.4566 30.7904C51.9054 29.9269 51.6115 27.8326 52.4872 27.2937C53.3629 26.7548 55.3837 26.5037 55.941 27.4039C56.4983 28.3041 56.8412 29.6391 55.9655 30.178Z" fill="#E8521D"/>
<path d="M20.9067 71.3056C20.031 71.8445 17.9489 72.7753 17.3978 71.8812C16.8466 70.9872 16.5527 68.9234 17.4284 68.3845C18.3041 67.8457 20.3311 67.6007 20.8822 68.4948C21.4334 69.3889 21.7824 70.7606 20.9067 71.3056Z" fill="#E8521D"/>
<path d="M71.4894 25.7016C70.6137 26.2405 68.5316 27.1774 67.9804 26.2772C67.4293 25.377 67.1354 23.3194 68.0111 22.7805C68.8868 22.2417 70.9076 21.9967 71.4649 22.8908C72.0222 23.7849 72.3651 25.1566 71.4894 25.7016Z" fill="#E8521D"/>
<path d="M67.5885 69.1254C66.7128 69.6643 64.6307 70.6013 64.0735 69.7378C63.5162 68.8744 63.2345 66.78 64.1102 66.235C64.9859 65.69 67.0068 65.4511 67.564 66.3513C68.1213 67.2515 68.4642 68.5865 67.5885 69.1254Z" fill="#E8521D"/>
<path d="M51.7891 56.6943C50.9134 57.2332 48.8252 58.1701 48.274 57.2699C47.7229 56.3697 47.4289 54.3121 48.274 53.7732C49.1191 53.2343 51.1767 52.9894 51.7278 53.8835C52.279 54.7775 52.6648 56.1554 51.7891 56.6943Z" fill="#E8521D"/>
<path d="M47.6616 79.3094C46.7859 79.8544 44.7038 80.7852 44.1527 79.9218C43.6015 79.0583 43.3076 76.964 44.1833 76.4251C45.059 75.8862 47.086 75.6412 47.6371 76.5353C48.1883 77.4294 48.5373 78.7705 47.6616 79.3094Z" fill="#E8521D"/>
<path d="M55.396 40.8947C54.5203 41.4336 52.4382 42.3644 51.8809 41.4704C51.3237 40.5763 51.042 38.5126 51.9177 37.9737C52.7934 37.4348 54.8143 37.1898 55.3654 38.0839C55.9165 38.978 56.2717 40.3558 55.396 40.8947Z" fill="#E8521D"/>
<path d="M38.6168 22.0702C37.7411 22.6091 35.659 23.546 35.1078 22.652C34.5567 21.7579 34.2627 19.6942 35.1384 19.1553C36.0141 18.6164 38.0411 18.3653 38.5923 19.2655C39.1434 20.1657 39.4863 21.5313 38.6168 22.0702Z" fill="#E8521D"/>
<path d="M30.9191 45.4265C30.6068 45.9776 29.7679 47.1105 29.1983 46.7921C28.6288 46.4736 27.8511 45.451 28.1634 44.8998C28.4757 44.3487 29.4862 43.6016 30.0557 43.92C30.6252 44.2385 31.2253 44.8692 30.9191 45.4265Z" fill="#E8521D"/>
<path d="M34.0851 66.4738C33.7789 67.031 32.9338 68.1639 32.3643 67.8455C31.7948 67.5271 31.0232 66.5044 31.3294 65.9471C31.6356 65.3899 32.6583 64.6489 33.2278 64.9673C33.7973 65.2858 34.3974 65.9165 34.0851 66.4738Z" fill="#E8521D"/>
<path d="M70.6933 41.256C70.381 41.8133 69.542 42.94 68.9725 42.6277C68.403 42.3154 67.6253 41.2866 67.9376 40.7294C68.2499 40.1721 69.2664 39.4311 69.8298 39.7495C70.3932 40.068 71.0056 40.6987 70.6933 41.256Z" fill="#E8521D"/>
<path d="M83.2226 59.8786C82.9164 60.4358 82.0713 61.5626 81.5018 61.2503C80.9323 60.938 80.1607 59.9092 80.4669 59.3519C80.7731 58.7946 81.7957 58.0537 82.3653 58.3721C82.9348 58.6905 83.5349 59.309 83.2226 59.8786Z" fill="#E8521D"/>
<path d="M60.3134 72.2242C61.581 72.0282 63.0569 72.0527 63.1732 72.7753C63.2896 73.498 62.6895 74.1777 61.4218 74.3737C60.1542 74.5696 58.6967 74.2206 58.5865 73.498C58.4763 72.7753 59.0519 72.4263 60.3134 72.2242Z" fill="#779E2B"/>
<path d="M47.5208 77.7172C48.7884 77.5212 50.2642 77.5457 50.3745 78.2744C50.4847 79.0031 49.8968 79.6706 48.6292 79.8666C47.3616 80.0626 45.9041 79.7135 45.7877 78.9909C45.6714 78.2683 46.2531 77.9192 47.5208 77.7172Z" fill="#779E2B"/>
<path d="M56.2166 71.0483C56.1309 70.2645 55.8737 69.3888 55.4205 69.4378C54.9673 69.4867 54.6673 69.9522 54.753 70.7421C54.8387 71.5321 55.2919 72.3404 55.7389 72.2915C56.186 72.2425 56.3023 71.8383 56.2166 71.0483Z" fill="#779E2B"/>
<path d="M53.1424 82.1753C53.0567 81.3914 52.7995 80.5157 52.3525 80.5647C51.9054 80.6137 51.5931 81.0791 51.685 81.8691C51.7768 82.6591 52.2177 83.4674 52.6709 83.4184C53.1241 83.3694 53.2343 82.9652 53.1424 82.1753Z" fill="#779E2B"/>
<path d="M62.4629 65.6779C63.2467 65.5554 63.9387 65.8187 64.0061 66.2902C64.0734 66.7618 63.4488 66.9026 62.6711 67.0128C61.8934 67.1231 61.2442 67.1782 61.1708 66.7312C61.0973 66.2841 61.679 65.7942 62.4629 65.6779Z" fill="#227638"/>
<path d="M50.9073 72.3712C51.6911 72.2487 52.3831 72.5121 52.4504 72.9836C52.5178 73.4551 51.8932 73.596 51.1093 73.7123C50.3255 73.8287 49.6825 73.8716 49.6151 73.4245C49.5478 72.9775 50.1234 72.4937 50.9073 72.3712Z" fill="#227638"/>
<path d="M56.9882 73.7122C57.3066 74.0858 57.3924 74.5328 57.178 74.7165C56.9637 74.9002 56.682 74.6185 56.3636 74.2511C56.0451 73.8837 55.8124 73.553 56.0267 73.3693C56.2411 73.1856 56.682 73.3509 56.9882 73.7122Z" fill="#227638"/>
<path d="M54.208 74.8514C53.7303 74.9738 53.2894 74.8514 53.2221 74.5758C53.1547 74.3002 53.5344 74.1716 54.0059 74.0553C54.4774 73.9389 54.8755 73.8777 54.9429 74.1471C55.0102 74.4166 54.6795 74.735 54.208 74.8514Z" fill="#227638"/>
<path d="M57.4781 75.7148C59.5296 75.3963 61.1524 74.9921 61.3483 76.1618C61.5443 77.3314 60.0195 78.544 57.9741 78.8624C55.9288 79.1808 54.1161 78.495 53.9324 77.3192C53.7487 76.1434 55.4327 76.0332 57.4781 75.7148Z" fill="#164E21"/>
<path d="M52.7015 69.8053C51.9544 68.7581 51.4278 67.864 50.8276 68.2866C50.2275 68.7091 50.3561 69.9032 51.0971 70.9504C51.8381 71.9976 52.9342 72.4875 53.5466 72.0649C54.159 71.6424 53.4303 70.8463 52.7015 69.8053Z" fill="#164E21"/>
<path d="M70.4606 56.7309C70.9566 55.549 71.7588 54.2814 72.4324 54.5937C73.106 54.906 73.3694 55.7389 72.8733 56.9208C72.3773 58.1027 71.3118 59.1559 70.632 58.8743C69.9523 58.5926 69.9462 57.9128 70.4606 56.7309Z" fill="#779E2B"/>
<path d="M68.403 70.5034C68.899 69.3215 69.6951 68.0845 70.3748 68.3662C71.0546 68.6479 71.3118 69.5114 70.8157 70.6933C70.3197 71.8752 69.2481 72.9285 68.5744 72.6468C67.9008 72.3651 67.9069 71.6853 68.403 70.5034Z" fill="#779E2B"/>
<path d="M67.2885 59.6029C66.572 59.2661 65.6963 59.0272 65.5003 59.4314C65.3043 59.8356 65.5432 60.35 66.2597 60.6562C66.9761 60.9624 67.9008 61.0358 68.0968 60.6562C68.2928 60.2765 68.0111 59.9458 67.2885 59.6029Z" fill="#779E2B"/>
<path d="M75.1514 68.06C74.4349 67.7232 73.5531 67.4476 73.3633 67.8885C73.1734 68.3294 73.4 68.8009 74.1165 69.1133C74.833 69.4256 75.7638 69.4929 75.9536 69.1133C76.1435 68.7336 75.8679 68.3968 75.1514 68.06Z" fill="#779E2B"/>
<path d="M65.9963 51.4645C66.3025 50.7358 66.8904 50.2887 67.3068 50.4602C67.7233 50.6317 67.5273 51.2502 67.2211 51.985C66.9149 52.7199 66.6087 53.2833 66.1984 53.1057C65.7881 52.9281 65.6901 52.1993 65.9963 51.4645Z" fill="#227638"/>
<path d="M65.6289 64.8205C65.9351 64.0856 66.523 63.6386 66.9394 63.81C67.3558 63.9815 67.166 64.6061 66.8537 65.3349C66.5413 66.0636 66.2413 66.6331 65.831 66.4555C65.4207 66.2779 65.3227 65.5492 65.6289 64.8205Z" fill="#227638"/>
<path d="M69.9707 60.3379C70.4545 60.2583 70.8831 60.4236 70.926 60.6992C70.9689 60.9748 70.5831 61.0728 70.0993 61.1524C69.6155 61.232 69.2175 61.2503 69.1746 60.9748C69.1317 60.6992 69.4869 60.4114 69.9707 60.3379Z" fill="#227638"/>
<path d="M69.4746 63.3139C69.3215 63.7793 68.9847 64.0855 68.7214 63.9998C68.4581 63.914 68.5377 63.5282 68.7214 63.0628C68.9051 62.5974 69.0276 62.23 69.2909 62.3157C69.5542 62.4014 69.6216 62.8485 69.4746 63.3139Z" fill="#227638"/>
<path d="M71.9242 60.9808C72.7264 59.064 73.2469 57.4596 74.3369 57.9189C75.427 58.3781 75.6658 60.301 74.8636 62.2055C74.0614 64.11 72.5243 65.2981 71.4281 64.8388C70.332 64.3795 71.1219 62.8914 71.9242 60.9808Z" fill="#164E21"/>
<path d="M64.3735 61.9545C63.0936 62.0464 62.0526 62.0219 62.1016 62.7567C62.1506 63.4916 63.2284 63.9815 64.5082 63.9202C65.7881 63.859 66.7863 63.1731 66.7312 62.4383C66.6761 61.7034 65.6534 61.8688 64.3735 61.9545Z" fill="#164E21"/>
<path d="M49.5233 59.1069C50.6317 58.9354 51.9238 58.9599 52.0218 59.5906C52.1198 60.2214 51.5993 60.8154 50.4908 60.9869C49.3824 61.1583 48.1087 60.8522 48.0413 60.2214C47.974 59.5906 48.4149 59.2661 49.5233 59.1069Z" fill="#779E2B"/>
<path d="M38.329 63.9142C39.4374 63.7428 40.7234 63.7673 40.8275 64.398C40.9316 65.0288 40.4049 65.6228 39.2965 65.7943C38.1881 65.9657 36.9082 65.6595 36.8103 65.0288C36.7123 64.398 37.2205 64.0918 38.329 63.9142Z" fill="#779E2B"/>
<path d="M45.9653 58.0782C45.8857 57.3923 45.6653 56.6207 45.2733 56.6697C44.8814 56.7187 44.612 57.1167 44.661 57.8087C44.7099 58.5007 45.1325 59.205 45.5244 59.1621C45.9163 59.1192 46.0143 58.7702 45.9653 58.0782Z" fill="#779E2B"/>
<path d="M43.2464 67.8394C43.1668 67.1535 42.9463 66.3881 42.5544 66.4309C42.1625 66.4738 41.893 66.878 41.942 67.57C41.991 68.2619 42.4135 68.9723 42.8055 68.9233C43.1974 68.8743 43.326 68.5069 43.2464 67.8394Z" fill="#779E2B"/>
<path d="M51.4033 53.375C52.0891 53.2648 52.6893 53.4975 52.7505 53.8894C52.8117 54.2814 52.2667 54.4222 51.5809 54.5018C50.895 54.5814 50.3561 54.6427 50.2704 54.2507C50.1846 53.8588 50.7174 53.4792 51.4033 53.375Z" fill="#227638"/>
<path d="M41.2867 59.2662C41.9726 59.1559 42.5789 59.3886 42.6401 59.7806C42.7013 60.1725 42.1502 60.3072 41.4704 60.3929C40.7907 60.4787 40.2457 60.5338 40.16 60.1419C40.0742 59.7499 40.6009 59.3396 41.2867 59.2662Z" fill="#227638"/>
<path d="M46.6206 60.4114C46.9023 60.736 46.9757 61.1279 46.7859 61.2871C46.5961 61.4463 46.3511 61.2014 46.0755 60.8768C45.8 60.5523 45.5918 60.2645 45.7816 60.1114C45.9714 59.9583 46.345 60.0869 46.6206 60.4114Z" fill="#227638"/>
<path d="M44.1772 61.4095C43.7608 61.5075 43.375 61.4095 43.3137 61.1645C43.2525 60.9196 43.5893 60.8094 44.0057 60.7052C44.4221 60.6011 44.7651 60.5522 44.8202 60.791C44.8753 61.0298 44.5936 61.3054 44.1772 61.4095Z" fill="#227638"/>
<path d="M47.0431 62.1628C48.8313 61.8811 50.2704 61.5504 50.4296 62.5547C50.5888 63.559 49.2661 64.6368 47.4718 64.9124C45.6775 65.188 44.0914 64.5939 43.9322 63.5651C43.773 62.5363 45.2488 62.4384 47.0431 62.1628Z" fill="#164E21"/>
<path d="M42.8422 56.9881C42.1931 56.0757 41.7276 55.2857 41.2071 55.6593C40.6866 56.0328 40.7907 57.0739 41.4398 57.9863C42.089 58.8987 43.0443 59.3397 43.5648 58.9661C44.0853 58.5926 43.5158 57.9006 42.8422 56.9881Z" fill="#164E21"/>
<path d="M58.3844 45.5488C58.8192 44.5139 59.5173 43.43 60.1113 43.6749C60.7054 43.9199 60.9319 44.6792 60.4971 45.7142C60.0624 46.7491 59.1254 47.6676 58.5375 47.4227C57.9496 47.1777 57.9496 46.5837 58.3844 45.5488Z" fill="#779E2B"/>
<path d="M56.6024 57.6005C57.0372 56.5655 57.7292 55.4816 58.3232 55.7327C58.9172 55.9838 59.1438 56.7309 58.709 57.7658C58.2742 58.8007 57.3434 59.7254 56.7494 59.4744C56.1554 59.2233 56.1676 58.6538 56.6024 57.6005Z" fill="#779E2B"/>
<path d="M55.6287 48.0596C55.0163 47.7657 54.2325 47.5575 54.061 47.9127C53.8896 48.2679 54.0978 48.7149 54.7224 49.0088C55.347 49.3028 56.1615 49.3456 56.3329 49.0088C56.5044 48.672 56.2533 48.3597 55.6287 48.0596Z" fill="#779E2B"/>
<path d="M62.4996 55.4632C61.8872 55.1693 61.1034 54.9549 60.9319 55.3162C60.7605 55.6776 60.9687 56.1123 61.5933 56.4063C62.2179 56.7002 63.0324 56.7431 63.2039 56.4063C63.3753 56.0695 63.112 55.7572 62.4996 55.4632Z" fill="#779E2B"/>
<path d="M54.4958 40.9376C54.7591 40.3252 55.2735 39.9088 55.641 40.0619C56.0084 40.215 55.8369 40.7539 55.5675 41.3907C55.298 42.0276 55.0347 42.5298 54.6673 42.3767C54.2999 42.2236 54.2264 41.5806 54.4958 40.9376Z" fill="#227638"/>
<path d="M54.1712 52.6219C54.4407 52.0095 54.9551 51.5931 55.3164 51.7462C55.6777 51.8993 55.5123 52.4382 55.249 53.0751C54.9857 53.7119 54.7101 54.2141 54.3488 54.061C53.9875 53.9079 53.9263 53.2649 54.1712 52.6219Z" fill="#227638"/>
<path d="M57.9741 48.7026C58.3967 48.6352 58.7702 48.7761 58.807 49.021C58.8437 49.266 58.5069 49.3456 58.0843 49.413C57.6618 49.4803 57.3127 49.5048 57.276 49.2599C57.2393 49.0149 57.5454 48.77 57.9741 48.7026Z" fill="#227638"/>
<path d="M57.5393 51.3052C57.4046 51.7155 57.1107 51.9849 56.878 51.9176C56.6453 51.8502 56.7188 51.5011 56.878 51.0908C57.0372 50.6805 57.1474 50.3621 57.3801 50.4417C57.6128 50.5213 57.6679 50.901 57.5393 51.3052Z" fill="#227638"/>
<path d="M59.6827 49.266C60.3869 47.5881 60.834 46.2041 61.7954 46.5838C62.7568 46.9635 62.9528 48.672 62.2547 50.3438C61.5566 52.0156 60.2032 53.0505 59.2479 52.6464C58.2926 52.2422 58.9784 50.9378 59.6827 49.266Z" fill="#164E21"/>
<path d="M53.0751 50.1232C51.9544 50.1967 51.042 50.1784 51.0848 50.8214C51.1277 51.4644 52.0708 51.9175 53.1914 51.8379C54.3121 51.7583 55.1817 51.1826 55.1388 50.5458C55.0959 49.9089 54.1957 50.0436 53.0751 50.1232Z" fill="#164E21"/>
<path d="M60.4359 39.0943C60.4359 39.0943 61.3667 25.0892 78.9114 26.7426C78.9114 26.7426 74.6248 37.4042 60.4359 39.0943Z" fill="#779E2B"/>
<path d="M60.4359 39.0943C60.4359 39.0943 65.8004 32.2784 74.1716 39.2473C74.1716 39.2473 68.2621 43.185 60.4359 39.0943Z" fill="#164E21"/>
</g>
<defs>
<clipPath id="clip0_219_374">
<rect width="101" height="101" fill="white"/>
</clipPath>
</defs>
</svg>
